<?xml version="1.0" encoding="UTF-8" standalone="no"?>
<!-- Created with Inkscape (http://www.inkscape.org/) -->

<svg
   width="164.3716mm"
   height="74.979729mm"
   viewBox="0 0 164.3716 74.979728"
   version="1.1"
   id="svg5"
   xml:space="preserve"
   inkscape:version="1.2.1 (9c6d41e410, 2022-07-14)"
   sodipodi:docname="getting_started.svg"
   inkscape:export-filename="getting_started.png"
   inkscape:export-xdpi="180"
   inkscape:export-ydpi="180"
   xmlns:inkscape="http://www.inkscape.org/namespaces/inkscape"
   xmlns:sodipodi="http://sodipodi.sourceforge.net/DTD/sodipodi-0.dtd"
   xmlns="http://www.w3.org/2000/svg"
   xmlns:svg="http://www.w3.org/2000/svg"><sodipodi:namedview
     id="namedview7"
     pagecolor="#ffffff"
     bordercolor="#000000"
     borderopacity="0.25"
     inkscape:showpageshadow="2"
     inkscape:pageopacity="0.0"
     inkscape:pagecheckerboard="0"
     inkscape:deskcolor="#d1d1d1"
     inkscape:document-units="mm"
     showgrid="false"
     inkscape:zoom="1.4503086"
     inkscape:cx="307.8655"
     inkscape:cy="146.52054"
     inkscape:window-width="1920"
     inkscape:window-height="1001"
     inkscape:window-x="-9"
     inkscape:window-y="-9"
     inkscape:window-maximized="1"
     inkscape:current-layer="layer1"
     showguides="true"><inkscape:grid
       type="xygrid"
       id="grid686"
       units="mm"
       spacingx="1"
       spacingy="1"
       originx="-20.910163"
       originy="-75.839491" /></sodipodi:namedview><defs
     id="defs2"><rect
       x="164.79251"
       y="280.62991"
       width="306.10013"
       height="121.93556"
       id="rect14646" /><rect
       x="164.79251"
       y="280.62991"
       width="306.10013"
       height="121.93556"
       id="rect1866" /><rect
       x="164.79251"
       y="280.62991"
       width="287.95761"
       height="17.765862"
       id="rect1888" /><rect
       x="164.79251"
       y="280.62991"
       width="181.77332"
       height="20.523895"
       id="rect8789" /><rect
       x="164.79251"
       y="280.62991"
       width="156.42039"
       height="42.951473"
       id="rect8795" /><rect
       x="164.79251"
       y="280.62991"
       width="181.77332"
       height="20.523895"
       id="rect8801" /></defs><g
     inkscape:label="Layer 1"
     inkscape:groupmode="layer"
     id="layer1"
     transform="translate(-20.910162,-75.839485)"><rect
       style="fill:#ffffff;fill-opacity:1;stroke:none;stroke-width:0.200894;stroke-linecap:round;stroke-dasharray:none;stroke-opacity:1"
       id="rect10539"
       width="164.3716"
       height="74.979729"
       x="20.910162"
       y="75.839485"
       ry="0"
       inkscape:export-filename="getting_started.png"
       inkscape:export-xdpi="180"
       inkscape:export-ydpi="180" /><rect
       style="fill:#282d30;fill-opacity:1;stroke:#000000;stroke-width:0.88352;stroke-dasharray:none;stroke-opacity:1"
       id="rect3368"
       width="2.0953758"
       height="0.84620941"
       x="110.78109"
       y="-134.85555"
       transform="rotate(90)" /><ellipse
       style="fill:none;fill-opacity:1;stroke:#000000;stroke-width:1.128;stroke-dasharray:none;stroke-opacity:1"
       id="path13224"
       cx="107.39792"
       cy="129.34459"
       rx="34.871944"
       ry="16.664471" /><path
       id="ellipse13226"
       style="fill:none;fill-opacity:1;stroke:#000000;stroke-width:0.432;stroke-dasharray:none;stroke-opacity:1"
       d="m 72.163581,132.2635 c 3e-5,9.29922 15.77506,16.83773 35.234539,16.83774 19.45949,-1e-5 35.23452,-7.53852 35.23455,-16.83774"
       sodipodi:nodetypes="csc" /><path
       style="fill:none;fill-opacity:1;stroke:#000000;stroke-width:1.128;stroke-linecap:round;stroke-dasharray:none;stroke-opacity:1"
       d="m 72.535761,129.57263 v 3.05574"
       id="path13284" /><g
       id="g13347"
       transform="matrix(0.96076877,0,0,1.9761365,-51.173832,-99.285611)"
       style="stroke-width:0.438894;stroke-dasharray:none"><path
         style="fill:none;fill-opacity:1;stroke:#000000;stroke-width:0.438894;stroke-linecap:round;stroke-dasharray:none;stroke-opacity:1"
         d="m 199.90034,119.90371 v 3.05574"
         id="path13341" /><path
         style="fill:none;fill-opacity:1;stroke:#000000;stroke-width:0.438894;stroke-linecap:round;stroke-dasharray:none;stroke-opacity:1"
         d="m 130.18441,119.90371 v 3.05574"
         id="path13343" /></g><rect
       style="fill:#11161c;fill-opacity:1;stroke:none;stroke-width:0.505564;stroke-linecap:round;stroke-dasharray:none;stroke-opacity:1"
       id="rect13349"
       width="43.145271"
       height="5.7466216"
       x="86.016876"
       y="129.89189"
       ry="2.248678" /><rect
       style="fill:#11161c;fill-opacity:1;stroke:none;stroke-width:0.152433;stroke-linecap:round;stroke-dasharray:none;stroke-opacity:1"
       id="rect14510"
       width="3.9222996"
       height="5.7466216"
       x="130.39232"
       y="129.89189"
       ry="1.6557747" /><rect
       style="fill:#11161c;fill-opacity:1;stroke:none;stroke-width:0.152433;stroke-linecap:round;stroke-dasharray:none;stroke-opacity:1"
       id="rect14564"
       width="3.9222996"
       height="5.7466216"
       x="80.481216"
       y="129.89189"
       ry="1.6557747" /><path
       style="fill:none;fill-opacity:1;stroke:#000000;stroke-width:1.128;stroke-linecap:round;stroke-dasharray:none;stroke-opacity:1"
       d="m 142.25169,129.57263 v 3.05574"
       id="path13282" /><path
       id="circle13146"
       style="fill:none;stroke:#000000;stroke-width:0.686;stroke-dasharray:none;stroke-opacity:1"
       d="m 80.824081,108.91653 h 53.147679 v 23.34886 H 80.824081 Z m 0,-2.96699 h 5.09547 v 3.19273 h -5.09547 z m 48.052199,0 h 5.09547 v 3.19273 h -5.09547 z m -21.00985,2.09377 h 2.37162 v 0.95777 h -2.37162 z m 13.54492,0 h 2.37162 v 0.95777 h -2.37162 z m -28.508819,0 h 2.37162 v 0.95777 h -2.37162 z"
       sodipodi:nodetypes="cccccccccccccccccccccccccccccc" /><rect
       style="fill:#282d30;fill-opacity:1;stroke:none;stroke-width:1;stroke-dasharray:none;stroke-opacity:1"
       id="rect12173"
       width="2.3716216"
       height="0.95777023"
       x="92.902527"
       y="108.04331" /><rect
       style="fill:#282d30;fill-opacity:1;stroke:none;stroke-width:1;stroke-dasharray:none;stroke-opacity:1"
       id="rect13111"
       width="2.3716216"
       height="0.95777023"
       x="121.41135"
       y="108.04331" /><rect
       style="fill:#282d30;fill-opacity:1;stroke:none;stroke-width:1;stroke-dasharray:none;stroke-opacity:1"
       id="rect13113"
       width="2.3716216"
       height="0.95777023"
       x="107.86642"
       y="108.04331" /><rect
       style="fill:#b2b9bf;fill-opacity:1;stroke:none;stroke-width:0.975606;stroke-dasharray:none;stroke-opacity:1"
       id="rect12119"
       width="5.095469"
       height="3.1927304"
       x="128.87628"
       y="105.94955"
       ry="0" /><rect
       style="fill:#b2b9bf;fill-opacity:1;stroke:none;stroke-width:0.975606;stroke-dasharray:none;stroke-opacity:1"
       id="rect12117"
       width="5.095469"
       height="3.1927304"
       x="80.824081"
       y="105.94955"
       ry="0" /><rect
       style="fill:#f3f4f5;fill-opacity:1;stroke:none;stroke-width:1;stroke-dasharray:none;stroke-opacity:1"
       id="rect10389"
       width="53.147675"
       height="23.348858"
       x="80.824081"
       y="108.91653" /><rect
       style="fill:#c9cfd5;fill-opacity:1;stroke:none;stroke-width:0.918072;stroke-dasharray:none;stroke-opacity:1"
       id="rect9191"
       width="3.3749998"
       height="2.6908782"
       x="82.36824"
       y="110.32601" /><path
       style="fill:none;fill-opacity:1;stroke:#b5b5b5;stroke-width:1.02149;stroke-dasharray:none;stroke-opacity:1"
       d="M 132.86198,109.89477 H 82.511821 v 3.23596 h 2.69498 v 17.96292 h 47.604219 z"
       id="path7743"
       sodipodi:nodetypes="ccccccc" /><rect
       style="fill:#cdd5e0;fill-opacity:1;stroke:#737373;stroke-width:0.5;stroke-dasharray:none;stroke-opacity:1"
       id="rect3142"
       width="46.25"
       height="20"
       x="85.855057"
       y="110.59352" /><circle
       style="fill:#2e3337;fill-opacity:1;stroke:none;stroke-width:0.68573;stroke-dasharray:none;stroke-opacity:1"
       id="path10911"
       cx="132.31425"
       cy="107.68993"
       r="1.1941919" /><circle
       style="fill:#2e3337;fill-opacity:1;stroke:none;stroke-width:0.68573;stroke-dasharray:none;stroke-opacity:1"
       id="circle12005"
       cx="82.555801"
       cy="107.68993"
       r="1.1941919" /><circle
       style="fill:#9da6ad;fill-opacity:1;stroke:none;stroke-width:0.68573;stroke-dasharray:none;stroke-opacity:1"
       id="circle14506"
       cx="132.31425"
       cy="134.05142"
       r="1.1941919" /><circle
       style="fill:#9da6ad;fill-opacity:1;stroke:none;stroke-width:0.68573;stroke-dasharray:none;stroke-opacity:1"
       id="circle14508"
       cx="82.555801"
       cy="134.05142"
       r="1.1941919" /><text
       xml:space="preserve"
       transform="matrix(0.26458333,0,0,0.26458333,-40.589537,13.191119)"
       id="text14644"
       style="font-style:normal;font-variant:normal;font-weight:300;font-stretch:normal;font-size:21.3333px;line-height:0.9;font-family:Dongle;-inkscape-font-specification:'Dongle Light';text-align:end;white-space:pre;shape-inside:url(#rect14646);display:inline;fill:#000000;fill-opacity:1;stroke:none;stroke-width:1.63276;stroke-linecap:round;stroke-dasharray:none;stroke-opacity:1"
       x="226.87965"
       y="0"><tspan
         x="237.61292"
         y="291.72417"
         id="tspan11552">Toggle temperatur / growth plot  <tspan
   style="font-weight:normal;-inkscape-font-specification:Dongle"
   id="tspan11550">Click</tspan>
</tspan><tspan
         x="286.3595"
         y="310.92416"
         id="tspan11556">Calibrate container floor  <tspan
   style="font-weight:normal;-inkscape-font-specification:Dongle"
   id="tspan11554">Hold</tspan></tspan></text><text
       xml:space="preserve"
       transform="matrix(0.26458333,0,0,0.26458333,74.735757,13.191119)"
       id="text1864"
       style="font-style:normal;font-variant:normal;font-weight:300;font-stretch:normal;font-size:21.3333px;line-height:0.9;font-family:Dongle;-inkscape-font-specification:'Dongle Light';white-space:pre;shape-inside:url(#rect1866);display:inline;fill:#000000;fill-opacity:1;stroke:none;stroke-width:1.63276;stroke-linecap:round;stroke-dasharray:none;stroke-opacity:1"><tspan
         x="164.79297"
         y="291.72417"
         id="tspan11560"><tspan
   style="font-weight:normal;-inkscape-font-specification:Dongle"
   id="tspan11558">Click</tspan>  Toggle 6h / 12h plot history
</tspan><tspan
         x="164.79297"
         y="310.92416"
         id="tspan11564"><tspan
   style="font-weight:normal;-inkscape-font-specification:Dongle"
   id="tspan11562">Hold</tspan>  Calibrate dough start height</tspan></text><text
       xml:space="preserve"
       style="font-style:normal;font-variant:normal;font-weight:300;font-stretch:normal;font-size:5.64444px;font-family:Dongle;-inkscape-font-specification:'Dongle Light';text-align:end;text-anchor:end;fill:#000000;fill-opacity:1;stroke-width:0.432001;stroke-linecap:round"
       x="109.77833"
       y="89.912445"
       id="text1870"><tspan
         sodipodi:role="line"
         id="tspan1868"
         style="stroke-width:0.432"
         x="109.77833"
         y="89.912445"></tspan></text><text
       xml:space="preserve"
       transform="matrix(0.26458333,0,0,0.26458333,25.718281,2.3864855)"
       id="text1886"
       style="font-style:normal;font-variant:normal;font-weight:300;font-stretch:normal;font-size:21.3333px;line-height:0.9;font-family:Dongle;-inkscape-font-specification:'Dongle Light';white-space:pre;shape-inside:url(#rect1888);display:inline;fill:#000000;fill-opacity:1;stroke:none;stroke-width:1.63276;stroke-linecap:round;stroke-dasharray:none;stroke-opacity:1"><tspan
         x="164.79297"
         y="291.72417"
         id="tspan11568"><tspan
   style="font-weight:normal;-inkscape-font-specification:Dongle"
   id="tspan11566">Hold both</tspan>  Save history to MicroSD card</tspan></text><rect
       style="fill:#282d30;fill-opacity:1;stroke:none;stroke-width:1;stroke-dasharray:none;stroke-opacity:1"
       id="rect2640"
       width="2.3716216"
       height="0.95777023"
       x="110.64297"
       y="-134.93413"
       transform="rotate(90)" /><path
       style="fill:#000000;stroke-width:0.202229;stroke-dasharray:none"
       d="m 163.40544,122.06247 c -0.0273,0.12295 -0.12447,0.31307 -0.21317,0.4179 -0.1062,0.12536 -0.33875,0.26765 -0.51901,0.31764 -0.1469,0.0407 -0.22917,0.0445 -0.9502,0.0445 h -0.78941 l -0.34529,-0.29941 -0.34531,-0.29942 h -0.45586 -0.45586 v 0.2118 c 0,0.22447 -0.0324,0.32106 -0.12218,0.36419 -0.0292,0.0134 -0.30055,0.0228 -0.70262,0.0228 h -0.65509 l -0.1728,-0.13855 c -0.095,-0.0763 -0.32193,-0.26587 -0.50421,-0.42139 l -0.33139,-0.28277 h -0.91197 c -0.99028,0 -1.08135,-0.009 -1.32166,-0.12624 -0.15357,-0.0751 -0.32686,-0.2292 -0.41743,-0.37132 -0.15032,-0.2359 -0.1491,-0.21452 -0.14124,-2.50769 l 0.008,-2.08475 0.0572,-0.12724 c 0.13037,-0.2897 0.3841,-0.50879 0.68655,-0.59266 0.16098,-0.0447 0.2094,-0.0452 3.93691,-0.0452 3.72752,0 3.77595,5.4e-4 3.93691,0.0452 0.30245,0.0839 0.55623,0.30296 0.68654,0.59266 l 0.0572,0.12724 0.005,2.52832 c 0.001,1.39057 -0.006,2.57147 -0.0174,2.62421 z m -0.52668,-5.1763 c -0.032,-0.0618 -0.1015,-0.14452 -0.15413,-0.18359 -0.19389,-0.14394 0.027,-0.13648 -3.98611,-0.13648 -4.12254,0 -3.81618,-0.0134 -4.02425,0.17363 -0.0779,0.0699 -0.12548,0.13632 -0.14615,0.20349 -0.0233,0.0765 -0.0289,0.57962 -0.0233,2.17514 l 0.008,2.07542 0.0748,0.10861 c 0.0463,0.0673 0.1208,0.13409 0.1956,0.17567 l 0.1208,0.0673 1.04303,0.0101 c 0.9978,0.0101 1.04554,0.0134 1.10071,0.0554 0.0317,0.0245 0.25989,0.21653 0.50704,0.42695 l 0.44936,0.38257 h 0.39708 0.39707 v -0.20032 c 0,-0.2176 0.0376,-0.33501 0.11978,-0.37452 0.0325,-0.0155 0.30096,-0.024 0.76853,-0.024 h 0.71869 l 0.35443,0.2994 0.35444,0.29942 h 0.61598 c 0.6881,0 0.79165,-0.0148 0.95545,-0.13632 0.0528,-0.0392 0.12206,-0.12168 0.15413,-0.18363 l 0.0584,-0.11254 v -2.49505 -2.49505 z m -6.3188,4.15557 c -0.0216,0.0194 -0.21223,0.0265 -0.70309,0.0265 -0.64053,0 -0.6747,-0.001 -0.69902,-0.0429 -0.0363,-0.061 -0.0331,-0.47375 0.005,-0.50713 0.0216,-0.0194 0.21458,-0.0266 0.71366,-0.0266 0.60096,0 0.68585,0.005 0.69902,0.0351 0.0284,0.0665 0.0164,0.48702 -0.0148,0.51494 z m 0.0135,-0.8753 c -0.009,0.008 -0.3699,0.0148 -0.80189,0.0148 -0.75124,0 -0.78653,-0.001 -0.81098,-0.0429 -0.0135,-0.0236 -0.0256,-0.13767 -0.0256,-0.25346 0,-0.16186 0.009,-0.21864 0.0388,-0.24542 0.0335,-0.0301 0.1408,-0.0349 0.7978,-0.0349 0.55743,0 0.7669,0.008 0.78866,0.0265 0.0317,0.0284 0.0435,0.50799 0.0134,0.53525 z m -0.0114,-0.87745 c -0.0225,0.0203 -0.20117,0.0273 -0.6906,0.0273 -0.56724,0 -0.66566,-0.005 -0.69901,-0.0349 -0.0525,-0.0472 -0.0566,-0.47868 -0.005,-0.51724 0.024,-0.0179 0.23509,-0.0236 0.72249,-0.0194 l 0.68858,0.006 0.008,0.2555 c 0.005,0.17984 -0.001,0.26357 -0.0233,0.28277 z m 0.0114,-0.88757 c -0.009,0.0213 -0.19306,0.0277 -0.79993,0.0277 -0.91928,0 -0.83862,0.0277 -0.83862,-0.28831 0,-0.31577 -0.0784,-0.28832 0.82338,-0.28832 0.5677,0 0.78011,0.008 0.8019,0.0266 0.0296,0.0264 0.0405,0.46181 0.0135,0.52231 z m -0.0315,-0.8602 c -0.0293,0.0148 -0.29449,0.023 -0.68984,0.023 -0.55076,0 -0.64758,-0.005 -0.68089,-0.0349 -0.0302,-0.0273 -0.0387,-0.0846 -0.0385,-0.2606 1.9e-4,-0.12409 0.0102,-0.24072 0.0239,-0.25901 0.0197,-0.0279 0.12675,-0.0344 0.6619,-0.0397 0.39347,-0.005 0.66399,0.001 0.7049,0.0161 l 0.0664,0.0227 v 0.25483 c 0,0.22923 -0.005,0.25712 -0.0477,0.27778 z"
       id="path7125" /><path
       style="fill:#000000;stroke-width:0.045894"
       d="m 175.34038,129.69669 v 0.41606 c 0,0.65947 0.23897,0.59361 -2.15402,0.59361 h -2.05899 l -0.0328,0.56788 c -0.018,0.31235 -0.0472,0.5913 -0.0649,0.61991 -0.0441,0.0713 -12.33408,0.0748 -12.41996,0.003 -0.0322,-0.0266 -0.0926,-0.20233 -0.13446,-0.39043 l -0.0761,-0.34201 h -2.08399 -2.08399 l -0.0814,-0.12417 c -0.0755,-0.11515 -0.0813,-0.3113 -0.0813,-2.69828 0,-2.38333 0.006,-2.58328 0.0811,-2.69785 l 0.0811,-0.12373 2.07212,-0.0119 2.07213,-0.0119 0.0648,-0.32125 c 0.0356,-0.1767 0.0973,-0.35741 0.13716,-0.40158 0.0682,-0.0757 0.42423,-0.0803 6.23917,-0.0803 h 6.16677 l 0.0382,0.10326 c 0.021,0.0568 0.0524,0.32965 0.0698,0.60634 0.0174,0.27671 0.0427,0.51421 0.0564,0.52779 0.0136,0.0136 0.93552,0.0276 2.04869,0.0312 1.89099,0.006 2.02791,0.0119 2.0843,0.0891 0.0391,0.0534 0.0603,0.22518 0.0603,0.48682 v 0.40427 c 11.30524,0 -4.45316,0 6.85208,0 0,0 0.30071,0.57959 0,1.37682 -0.30071,0.79724 0,1.37683 0,1.37683 -11.30529,2.9e-4 4.45306,2.8e-4 -6.85223,2.8e-4 z m -17.10702,-3.72585 c -0.0694,-0.008 -1.00393,-0.004 -2.07671,0.008 l -1.95049,0.023 v 2.15703 2.15701 l 2.04229,0.0101 2.04228,0.0101 0.0237,-1.98353 c 0.013,-1.09095 0.0285,-2.06993 0.0345,-2.17554 0.01,-0.17844 0.002,-0.19303 -0.11547,-0.20652 z"
       id="path7865"
       sodipodi:nodetypes="csscsssscccssscccssscsssssscczcccccccccsscc" /><g
       id="g8707"
       transform="translate(0,1.4594595)"><path
         style="fill:none;fill-opacity:1;stroke:#000000;stroke-width:0.2;stroke-linecap:round;stroke-dasharray:none;stroke-opacity:1"
         d="m 134.95439,123.23311 h 9.98818 l 3.44341,3.44341 h 5.6326"
         id="path7921" /><circle
         style="fill:#000000;fill-opacity:1;stroke:#000000;stroke-width:0.2;stroke-linecap:round;stroke-dasharray:none;stroke-opacity:1"
         id="path8701"
         cx="134.96542"
         cy="123.2265"
         r="0.18243243" /></g><path
       style="fill:none;fill-opacity:1;stroke:#000000;stroke-width:0.2;stroke-linecap:round;stroke-dasharray:none;stroke-opacity:1"
       d="m 134.95439,122.52897 h 9.98818 l 3.44341,-3.44341 h 5.6326"
       id="path8709" /><circle
       style="fill:#000000;fill-opacity:1;stroke:#000000;stroke-width:0.2;stroke-linecap:round;stroke-dasharray:none;stroke-opacity:1"
       id="circle8711"
       cx="134.96542"
       cy="-122.53558"
       r="0.18243243"
       transform="scale(1,-1)" /><g
       id="g8741"><path
         style="fill:none;fill-opacity:1;stroke:#000000;stroke-width:0.2;stroke-linecap:round;stroke-dasharray:none;stroke-opacity:1"
         d="M 94.040422,106.61785 V 99.780888 L 86.493968,92.234434"
         id="path8725" /><circle
         style="fill:#000000;fill-opacity:1;stroke:#000000;stroke-width:0.2;stroke-linecap:round;stroke-dasharray:none;stroke-opacity:1"
         id="circle8737"
         cx="94.040421"
         cy="-106.71706"
         r="0.18243243"
         transform="scale(1,-1)" /></g><g
       id="g8747"
       transform="matrix(-1,0,0,1,203.03368,0)"><path
         style="fill:none;fill-opacity:1;stroke:#000000;stroke-width:0.2;stroke-linecap:round;stroke-dasharray:none;stroke-opacity:1"
         d="M 94.040422,106.61785 V 99.780888 L 86.493968,92.234434"
         id="path8743" /><circle
         style="fill:#000000;fill-opacity:1;stroke:#000000;stroke-width:0.2;stroke-linecap:round;stroke-dasharray:none;stroke-opacity:1"
         id="circle8745"
         cx="94.040421"
         cy="-106.71706"
         r="0.18243243"
         transform="scale(1,-1)" /></g><path
       style="fill:none;fill-opacity:1;stroke:#000000;stroke-width:0.2;stroke-linecap:round;stroke-dasharray:none;stroke-opacity:1"
       d="m 107.97234,106.74685 -6.35321,-6.41772"
       id="path8749"
       sodipodi:nodetypes="cc" /><circle
       style="fill:#000000;fill-opacity:1;stroke:#000000;stroke-width:0.2;stroke-linecap:round;stroke-dasharray:none;stroke-opacity:1"
       id="circle8751"
       cx="107.97234"
       cy="-106.72777"
       r="0.18243243"
       transform="scale(1,-1)" /><path
       style="fill:none;fill-opacity:1;stroke:#000000;stroke-width:0.2;stroke-linecap:round;stroke-dasharray:none;stroke-opacity:1"
       d="m 95.061348,106.74685 6.482212,-6.41772"
       id="path8755"
       sodipodi:nodetypes="cc" /><circle
       style="fill:#000000;fill-opacity:1;stroke:#000000;stroke-width:0.2;stroke-linecap:round;stroke-dasharray:none;stroke-opacity:1"
       id="circle8757"
       cx="-95.061348"
       cy="-106.72777"
       r="0.18243243"
       transform="scale(-1)" /><path
       style="fill:none;fill-opacity:1;stroke:#000000;stroke-width:0.2;stroke-linecap:round;stroke-dasharray:none;stroke-opacity:1"
       d="M 101.58493,100.32914 V 81.349584"
       id="path8761"
       sodipodi:nodetypes="cc" /><text
       xml:space="preserve"
       transform="matrix(0.26458333,0,0,0.26458333,110.27238,37.643682)"
       id="text8787"
       style="font-style:normal;font-variant:normal;font-weight:300;font-stretch:normal;font-size:21.3333px;line-height:0.9;font-family:Dongle;-inkscape-font-specification:'Dongle Light';white-space:pre;shape-inside:url(#rect8789);display:inline;fill:#000000;fill-opacity:1;stroke:none;stroke-width:1.63276;stroke-linecap:round;stroke-dasharray:none;stroke-opacity:1"><tspan
         x="164.79297"
         y="291.72417"
         id="tspan11570">MicroSD card</tspan></text><text
       xml:space="preserve"
       transform="matrix(0.26458333,0,0,0.26458333,110.27238,58.606054)"
       id="text8793"
       style="font-style:normal;font-variant:normal;font-weight:300;font-stretch:normal;font-size:21.3333px;line-height:0.7;font-family:Dongle;-inkscape-font-specification:'Dongle Light';white-space:pre;shape-inside:url(#rect8795);display:inline;fill:#000000;fill-opacity:1;stroke:none;stroke-width:1.63276;stroke-linecap:round;stroke-dasharray:none;stroke-opacity:1"><tspan
         x="164.79297"
         y="289.59085"
         id="tspan11572">USB-C
</tspan><tspan
         x="164.79297"
         y="304.52416"
         id="tspan11574">(charge &amp; update)</tspan></text><text
       xml:space="preserve"
       transform="matrix(0.26458333,0,0,0.26458333,110.27238,28.065979)"
       id="text8799"
       style="font-style:normal;font-variant:normal;font-weight:300;font-stretch:normal;font-size:21.3333px;line-height:0.9;font-family:Dongle;-inkscape-font-specification:'Dongle Light';white-space:pre;shape-inside:url(#rect8801);display:inline;fill:#000000;fill-opacity:1;stroke:none;stroke-width:1.63276;stroke-linecap:round;stroke-dasharray:none;stroke-opacity:1"><tspan
         x="164.79297"
         y="291.72417"
         id="tspan11576">Reset</tspan></text><path
       style="fill:none;fill-opacity:1;stroke:#000000;stroke-width:0.2;stroke-linecap:round;stroke-dasharray:none;stroke-opacity:1"
       d="m 135.83617,111.77781 h 5.22446 l 7.61096,-7.61095 h 4.45047"
       id="path8803" /><circle
       style="fill:#000000;fill-opacity:1;stroke:#000000;stroke-width:0.2;stroke-linecap:round;stroke-dasharray:none;stroke-opacity:1"
       id="circle8805"
       cx="136.02959"
       cy="-111.7722"
       r="0.18243243"
       transform="scale(1,-1)" /></g></svg>
