STARTFONT 2.1
FONT -FontForge-Tahoma-Bold-R-Normal--12-120-75-75-P-74-ISO10646-1
SIZE 12 75 75
FONTBOUNDINGBOX 13 12 0 -2
COMMENT "Generated by fontforge, http://fontforge.sourceforge.net"
COMMENT "(c) 2018 Microsoft Corporation. All rights reserved."
COMMENT ""
COMMENT "Hebrew OpenType Layout logic copyright (c) 2003 & 2007, Ralph Hancock & John Hudson. This layout logic for Biblical Hebrew is open source software under the MIT License; see embedded license description for details."
STARTPROPERTIES 40
FOUNDRY "FontForge"
FAMILY_NAME "Tahoma"
WEIGHT_NAME "Bold"
SLANT "R"
SETWIDTH_NAME "Normal"
ADD_STYLE_NAME ""
PIXEL_SIZE 12
POINT_SIZE 120
RESOLUTION_X 75
RESOLUTION_Y 75
SPACING "P"
AVERAGE_WIDTH 74
CHARSET_REGISTRY "ISO10646"
CHARSET_ENCODING "1"
FONTNAME_REGISTRY ""
CHARSET_COLLECTIONS "ISO10646-1"
FONT_NAME "Tahoma-Bold"
FACE_NAME "Tahoma Bold"
COPYRIGHT "(c) 2018 Microsoft Corporation. All rights reserved."
FONT_VERSION "7.00"
FONT_ASCENT 10
FONT_DESCENT 2
UNDERLINE_POSITION -1
UNDERLINE_THICKNESS 2
X_HEIGHT 6
CAP_HEIGHT 8
RAW_ASCENT 799
RAW_DESCENT 200
NORM_SPACE 4
RELATIVE_WEIGHT 70
RELATIVE_SETWIDTH 50
SUPERSCRIPT_X 0
SUPERSCRIPT_Y 5
SUPERSCRIPT_SIZE 7
SUBSCRIPT_X 0
SUBSCRIPT_Y 1
SUBSCRIPT_SIZE 7
FIGURE_WIDTH 8
AVG_LOWERCASE_WIDTH 69
AVG_UPPERCASE_WIDTH 80
ENDPROPERTIES
CHARS 69
STARTCHAR space
ENCODING 32
SWIDTH 292 0
DWIDTH 4 0
BBX 1 1 0 0
BITMAP
00
ENDCHAR
STARTCHAR percent
ENCODING 37
SWIDTH 1198 0
DWIDTH 14 0
BBX 13 9 0 0
BITMAP
7040
D880
D900
D900
7270
04D8
04D8
08D8
1070
ENDCHAR
STARTCHAR plus
ENCODING 43
SWIDTH 818 0
DWIDTH 10 0
BBX 7 7 1 1
BITMAP
10
10
10
FE
10
10
10
ENDCHAR
STARTCHAR comma
ENCODING 44
SWIDTH 312 0
DWIDTH 4 0
BBX 2 4 1 -2
BITMAP
C0
C0
C0
80
ENDCHAR
STARTCHAR hyphen
ENCODING 45
SWIDTH 431 0
DWIDTH 5 0
BBX 4 1 0 4
BITMAP
F0
ENDCHAR
STARTCHAR period
ENCODING 46
SWIDTH 312 0
DWIDTH 4 0
BBX 2 2 1 0
BITMAP
C0
C0
ENDCHAR
STARTCHAR zero
ENCODING 48
SWIDTH 636 0
DWIDTH 8 0
BBX 7 9 0 0
BITMAP
7C
C6
C6
C6
C6
C6
C6
C6
7C
ENDCHAR
STARTCHAR one
ENCODING 49
SWIDTH 636 0
DWIDTH 8 0
BBX 6 9 1 0
BITMAP
30
F0
30
30
30
30
30
30
FC
ENDCHAR
STARTCHAR two
ENCODING 50
SWIDTH 636 0
DWIDTH 8 0
BBX 7 9 0 0
BITMAP
7C
86
06
06
0C
18
30
60
FE
ENDCHAR
STARTCHAR three
ENCODING 51
SWIDTH 636 0
DWIDTH 8 0
BBX 7 9 0 0
BITMAP
7C
86
06
06
3C
06
06
86
7C
ENDCHAR
STARTCHAR four
ENCODING 52
SWIDTH 636 0
DWIDTH 8 0
BBX 7 9 0 0
BITMAP
0C
1C
2C
4C
8C
FE
0C
0C
0C
ENDCHAR
STARTCHAR five
ENCODING 53
SWIDTH 636 0
DWIDTH 8 0
BBX 7 9 0 0
BITMAP
7E
60
60
7C
06
06
06
86
7C
ENDCHAR
STARTCHAR six
ENCODING 54
SWIDTH 636 0
DWIDTH 8 0
BBX 7 9 0 0
BITMAP
3C
60
C0
FC
C6
C6
C6
C6
7C
ENDCHAR
STARTCHAR seven
ENCODING 55
SWIDTH 636 0
DWIDTH 8 0
BBX 7 9 0 0
BITMAP
FE
06
0C
0C
18
18
30
30
30
ENDCHAR
STARTCHAR eight
ENCODING 56
SWIDTH 636 0
DWIDTH 8 0
BBX 7 9 0 0
BITMAP
7C
C6
C6
C6
7C
C6
C6
C6
7C
ENDCHAR
STARTCHAR nine
ENCODING 57
SWIDTH 636 0
DWIDTH 8 0
BBX 7 9 0 0
BITMAP
7C
C6
C6
C6
C6
7E
06
0C
78
ENDCHAR
STARTCHAR A
ENCODING 65
SWIDTH 684 0
DWIDTH 9 0
BBX 8 9 0 0
BITMAP
18
3C
3C
66
66
66
FF
C3
C3
ENDCHAR
STARTCHAR B
ENCODING 66
SWIDTH 686 0
DWIDTH 8 0
BBX 7 9 0 0
BITMAP
FC
C6
C6
C6
FC
C6
C6
C6
FC
ENDCHAR
STARTCHAR C
ENCODING 67
SWIDTH 667 0
DWIDTH 8 0
BBX 7 9 0 0
BITMAP
7C
C2
C2
C0
C0
C0
C2
C2
7C
ENDCHAR
STARTCHAR D
ENCODING 68
SWIDTH 757 0
DWIDTH 9 0
BBX 8 9 0 0
BITMAP
FC
C6
C3
C3
C3
C3
C3
C6
FC
ENDCHAR
STARTCHAR E
ENCODING 69
SWIDTH 615 0
DWIDTH 7 0
BBX 6 9 0 0
BITMAP
FC
C0
C0
C0
FC
C0
C0
C0
FC
ENDCHAR
STARTCHAR F
ENCODING 70
SWIDTH 581 0
DWIDTH 6 0
BBX 5 9 0 0
BITMAP
F8
C0
C0
C0
F8
C0
C0
C0
C0
ENDCHAR
STARTCHAR G
ENCODING 71
SWIDTH 745 0
DWIDTH 8 0
BBX 7 9 0 0
BITMAP
7C
C2
C2
C0
CE
C6
C6
C6
7E
ENDCHAR
STARTCHAR H
ENCODING 72
SWIDTH 764 0
DWIDTH 9 0
BBX 8 9 0 0
BITMAP
C3
C3
C3
C3
FF
C3
C3
C3
C3
ENDCHAR
STARTCHAR I
ENCODING 73
SWIDTH 483 0
DWIDTH 5 0
BBX 4 9 0 0
BITMAP
F0
60
60
60
60
60
60
60
F0
ENDCHAR
STARTCHAR J
ENCODING 74
SWIDTH 500 0
DWIDTH 6 0
BBX 5 9 0 0
BITMAP
78
18
18
18
18
18
18
18
F0
ENDCHAR
STARTCHAR K
ENCODING 75
SWIDTH 696 0
DWIDTH 8 0
BBX 7 9 0 0
BITMAP
C6
CC
D8
F0
E0
F0
D8
CC
C6
ENDCHAR
STARTCHAR L
ENCODING 76
SWIDTH 572 0
DWIDTH 7 0
BBX 6 9 0 0
BITMAP
C0
C0
C0
C0
C0
C0
C0
C0
FC
ENDCHAR
STARTCHAR M
ENCODING 77
SWIDTH 893 0
DWIDTH 11 0
BBX 10 9 0 0
BITMAP
C0C0
E1C0
F3C0
BEC0
9CC0
88C0
80C0
80C0
80C0
ENDCHAR
STARTCHAR N
ENCODING 78
SWIDTH 770 0
DWIDTH 8 0
BBX 7 9 0 0
BITMAP
C2
E2
E2
B2
9A
9A
8E
8E
86
ENDCHAR
STARTCHAR O
ENCODING 79
SWIDTH 770 0
DWIDTH 9 0
BBX 8 9 0 0
BITMAP
7E
C3
C3
C3
C3
C3
C3
C3
7E
ENDCHAR
STARTCHAR P
ENCODING 80
SWIDTH 657 0
DWIDTH 8 0
BBX 7 9 0 0
BITMAP
FC
C6
C6
C6
C6
FC
C0
C0
C0
ENDCHAR
STARTCHAR Q
ENCODING 81
SWIDTH 770 0
DWIDTH 9 0
BBX 8 11 0 -2
BITMAP
7E
C3
C3
C3
C3
C3
C3
C3
7E
0C
07
ENDCHAR
STARTCHAR R
ENCODING 82
SWIDTH 726 0
DWIDTH 9 0
BBX 8 9 0 0
BITMAP
FC
C6
C6
C6
FC
D8
CC
C6
C3
ENDCHAR
STARTCHAR S
ENCODING 83
SWIDTH 633 0
DWIDTH 8 0
BBX 7 9 0 0
BITMAP
7C
C2
C2
C0
7C
06
86
86
7C
ENDCHAR
STARTCHAR T
ENCODING 84
SWIDTH 612 0
DWIDTH 7 0
BBX 6 9 0 0
BITMAP
FC
30
30
30
30
30
30
30
30
ENDCHAR
STARTCHAR U
ENCODING 85
SWIDTH 738 0
DWIDTH 8 0
BBX 7 9 0 0
BITMAP
C6
C6
C6
C6
C6
C6
C6
C6
7C
ENDCHAR
STARTCHAR V
ENCODING 86
SWIDTH 674 0
DWIDTH 8 0
BBX 7 9 0 0
BITMAP
C6
C6
C6
6C
6C
6C
38
38
38
ENDCHAR
STARTCHAR W
ENCODING 87
SWIDTH 1027 0
DWIDTH 12 0
BBX 11 9 0 0
BITMAP
C460
CE60
CE60
CA60
7BC0
7BC0
7BC0
3180
3180
ENDCHAR
STARTCHAR X
ENCODING 88
SWIDTH 684 0
DWIDTH 8 0
BBX 7 9 0 0
BITMAP
C6
C6
6C
38
38
38
6C
C6
C6
ENDCHAR
STARTCHAR Y
ENCODING 89
SWIDTH 670 0
DWIDTH 7 0
BBX 6 9 0 0
BITMAP
CC
CC
CC
78
78
30
30
30
30
ENDCHAR
STARTCHAR Z
ENCODING 90
SWIDTH 622 0
DWIDTH 7 0
BBX 6 9 0 0
BITMAP
FC
0C
0C
18
30
60
C0
C0
FC
ENDCHAR
STARTCHAR a
ENCODING 97
SWIDTH 598 0
DWIDTH 7 0
BBX 6 7 0 0
BITMAP
38
4C
0C
7C
CC
CC
7C
ENDCHAR
STARTCHAR b
ENCODING 98
SWIDTH 631 0
DWIDTH 8 0
BBX 7 10 0 0
BITMAP
C0
C0
C0
DC
E6
C6
C6
C6
C6
FC
ENDCHAR
STARTCHAR c
ENCODING 99
SWIDTH 527 0
DWIDTH 6 0
BBX 5 7 0 0
BITMAP
78
C0
C0
C0
C0
C0
78
ENDCHAR
STARTCHAR d
ENCODING 100
SWIDTH 629 0
DWIDTH 8 0
BBX 7 10 0 0
BITMAP
06
06
06
7E
C6
C6
C6
C6
CE
76
ENDCHAR
STARTCHAR e
ENCODING 101
SWIDTH 593 0
DWIDTH 7 0
BBX 6 7 0 0
BITMAP
78
CC
CC
FC
C0
C4
78
ENDCHAR
STARTCHAR f
ENCODING 102
SWIDTH 382 0
DWIDTH 5 0
BBX 5 10 0 0
BITMAP
38
60
60
F0
60
60
60
60
60
60
ENDCHAR
STARTCHAR g
ENCODING 103
SWIDTH 629 0
DWIDTH 8 0
BBX 7 9 0 -2
BITMAP
7E
C6
C6
C6
C6
CE
76
06
7C
ENDCHAR
STARTCHAR h
ENCODING 104
SWIDTH 640 0
DWIDTH 8 0
BBX 7 10 0 0
BITMAP
C0
C0
C0
DC
E6
C6
C6
C6
C6
C6
ENDCHAR
STARTCHAR i
ENCODING 105
SWIDTH 301 0
DWIDTH 3 0
BBX 2 9 0 0
BITMAP
C0
00
C0
C0
C0
C0
C0
C0
C0
ENDCHAR
STARTCHAR j
ENCODING 106
SWIDTH 362 0
DWIDTH 4 0
BBX 3 11 0 -2
BITMAP
60
00
E0
60
60
60
60
60
60
60
C0
ENDCHAR
STARTCHAR k
ENCODING 107
SWIDTH 602 0
DWIDTH 7 0
BBX 6 10 0 0
BITMAP
C0
C0
C0
CC
D8
F0
E0
F0
D8
CC
ENDCHAR
STARTCHAR l
ENCODING 108
SWIDTH 301 0
DWIDTH 3 0
BBX 2 10 0 0
BITMAP
C0
C0
C0
C0
C0
C0
C0
C0
C0
C0
ENDCHAR
STARTCHAR m
ENCODING 109
SWIDTH 953 0
DWIDTH 11 0
BBX 10 7 0 0
BITMAP
FB80
CCC0
CCC0
CCC0
CCC0
CCC0
CCC0
ENDCHAR
STARTCHAR n
ENCODING 110
SWIDTH 640 0
DWIDTH 8 0
BBX 7 7 0 0
BITMAP
DC
E6
C6
C6
C6
C6
C6
ENDCHAR
STARTCHAR o
ENCODING 111
SWIDTH 617 0
DWIDTH 8 0
BBX 7 7 0 0
BITMAP
7C
C6
C6
C6
C6
C6
7C
ENDCHAR
STARTCHAR p
ENCODING 112
SWIDTH 629 0
DWIDTH 8 0
BBX 7 9 0 -2
BITMAP
DC
E6
C6
C6
C6
C6
FC
C0
C0
ENDCHAR
STARTCHAR q
ENCODING 113
SWIDTH 629 0
DWIDTH 8 0
BBX 7 9 0 -2
BITMAP
7E
C6
C6
C6
C6
CE
76
06
06
ENDCHAR
STARTCHAR r
ENCODING 114
SWIDTH 433 0
DWIDTH 5 0
BBX 4 7 0 0
BITMAP
D0
F0
C0
C0
C0
C0
C0
ENDCHAR
STARTCHAR s
ENCODING 115
SWIDTH 514 0
DWIDTH 6 0
BBX 5 7 0 0
BITMAP
70
C8
C0
70
18
98
70
ENDCHAR
STARTCHAR t
ENCODING 116
SWIDTH 415 0
DWIDTH 6 0
BBX 5 9 0 0
BITMAP
60
60
F8
60
60
60
60
60
38
ENDCHAR
STARTCHAR u
ENCODING 117
SWIDTH 640 0
DWIDTH 8 0
BBX 7 7 0 0
BITMAP
C6
C6
C6
C6
C6
CE
76
ENDCHAR
STARTCHAR v
ENCODING 118
SWIDTH 578 0
DWIDTH 7 0
BBX 6 7 0 0
BITMAP
CC
CC
EC
78
78
30
30
ENDCHAR
STARTCHAR w
ENCODING 119
SWIDTH 889 0
DWIDTH 11 0
BBX 10 7 0 0
BITMAP
CCC0
CCC0
6D80
6D80
7F80
3300
3300
ENDCHAR
STARTCHAR x
ENCODING 120
SWIDTH 604 0
DWIDTH 7 0
BBX 6 7 0 0
BITMAP
CC
CC
78
30
78
CC
CC
ENDCHAR
STARTCHAR y
ENCODING 121
SWIDTH 575 0
DWIDTH 7 0
BBX 6 9 0 -2
BITMAP
CC
CC
CC
78
78
30
30
60
60
ENDCHAR
STARTCHAR z
ENCODING 122
SWIDTH 525 0
DWIDTH 6 0
BBX 5 7 0 0
BITMAP
F8
18
30
60
C0
C0
F8
ENDCHAR
STARTCHAR degree
ENCODING 176
SWIDTH 519 0
DWIDTH 6 0
BBX 5 5 0 4
BITMAP
70
88
88
88
70
ENDCHAR
ENDFONT
